<mxfile host="app.diagrams.net" modified="2021-09-06T20:42:01.034Z" agent="5.0 (Macintosh; Intel Mac OS X 10_15_7) AppleWebKit/537.36 (KHTML, like Gecko) Chrome/93.0.4577.63 Safari/537.36" etag="cBha0iDEn4FUQ4xrKMlk" version="15.0.6" type="github">
  <diagram id="C5RBs43oDa-KdzZeNtuy" name="Page-1">
    <mxGraphModel dx="1346" dy="1018" grid="0" gridSize="10" guides="1" tooltips="1" connect="1" arrows="1" fold="1" page="0" pageScale="1" pageWidth="827" pageHeight="1169" math="0" shadow="0">
      <root>
        <mxCell id="WIyWlLk6GJQsqaUBKTNV-0" />
        <mxCell id="WIyWlLk6GJQsqaUBKTNV-1" parent="WIyWlLk6GJQsqaUBKTNV-0" />
        <mxCell id="YhKqYagesfNfl4UuQ9qV-76" style="edgeStyle=orthogonalEdgeStyle;rounded=0;orthogonalLoop=1;jettySize=auto;html=1;exitX=0;exitY=0.5;exitDx=0;exitDy=0;exitPerimeter=0;" edge="1" parent="WIyWlLk6GJQsqaUBKTNV-1" source="YhKqYagesfNfl4UuQ9qV-2" target="YhKqYagesfNfl4UuQ9qV-74">
          <mxGeometry relative="1" as="geometry" />
        </mxCell>
        <mxCell id="YhKqYagesfNfl4UuQ9qV-77" style="edgeStyle=orthogonalEdgeStyle;rounded=0;orthogonalLoop=1;jettySize=auto;html=1;exitX=1;exitY=0.5;exitDx=0;exitDy=0;exitPerimeter=0;" edge="1" parent="WIyWlLk6GJQsqaUBKTNV-1" source="YhKqYagesfNfl4UuQ9qV-2" target="YhKqYagesfNfl4UuQ9qV-73">
          <mxGeometry relative="1" as="geometry" />
        </mxCell>
        <mxCell id="YhKqYagesfNfl4UuQ9qV-2" value="Converz Login Page" style="strokeWidth=2;html=1;shape=mxgraph.flowchart.start_2;whiteSpace=wrap;" vertex="1" parent="WIyWlLk6GJQsqaUBKTNV-1">
          <mxGeometry x="330" y="-190" width="100" height="100" as="geometry" />
        </mxCell>
        <mxCell id="YhKqYagesfNfl4UuQ9qV-3" value="Application Page" style="strokeWidth=2;html=1;shape=mxgraph.flowchart.terminator;whiteSpace=wrap;" vertex="1" parent="WIyWlLk6GJQsqaUBKTNV-1">
          <mxGeometry x="370" y="420" width="140" height="60" as="geometry" />
        </mxCell>
        <mxCell id="YhKqYagesfNfl4UuQ9qV-8" value="Yes" style="text;html=1;align=center;verticalAlign=middle;resizable=0;points=[];autosize=1;strokeColor=none;fillColor=none;" vertex="1" parent="WIyWlLk6GJQsqaUBKTNV-1">
          <mxGeometry x="450" y="370" width="40" height="20" as="geometry" />
        </mxCell>
        <mxCell id="YhKqYagesfNfl4UuQ9qV-12" style="edgeStyle=orthogonalEdgeStyle;rounded=0;orthogonalLoop=1;jettySize=auto;html=1;" edge="1" parent="WIyWlLk6GJQsqaUBKTNV-1" source="YhKqYagesfNfl4UuQ9qV-9" target="YhKqYagesfNfl4UuQ9qV-3">
          <mxGeometry relative="1" as="geometry" />
        </mxCell>
        <mxCell id="YhKqYagesfNfl4UuQ9qV-9" value="Successful &lt;br&gt;login ?" style="strokeWidth=2;html=1;shape=mxgraph.flowchart.decision;whiteSpace=wrap;" vertex="1" parent="WIyWlLk6GJQsqaUBKTNV-1">
          <mxGeometry x="390" y="280" width="100" height="80" as="geometry" />
        </mxCell>
        <mxCell id="YhKqYagesfNfl4UuQ9qV-11" style="edgeStyle=orthogonalEdgeStyle;rounded=0;orthogonalLoop=1;jettySize=auto;html=1;exitX=0.5;exitY=1;exitDx=0;exitDy=0;entryX=0.5;entryY=0;entryDx=0;entryDy=0;entryPerimeter=0;" edge="1" parent="WIyWlLk6GJQsqaUBKTNV-1" source="YhKqYagesfNfl4UuQ9qV-10" target="YhKqYagesfNfl4UuQ9qV-9">
          <mxGeometry relative="1" as="geometry" />
        </mxCell>
        <mxCell id="YhKqYagesfNfl4UuQ9qV-10" value="Login" style="rounded=1;whiteSpace=wrap;html=1;absoluteArcSize=1;arcSize=14;strokeWidth=2;" vertex="1" parent="WIyWlLk6GJQsqaUBKTNV-1">
          <mxGeometry x="390" y="160" width="100" height="40" as="geometry" />
        </mxCell>
        <mxCell id="YhKqYagesfNfl4UuQ9qV-52" style="edgeStyle=orthogonalEdgeStyle;rounded=0;orthogonalLoop=1;jettySize=auto;html=1;exitX=1;exitY=0.5;exitDx=0;exitDy=0;entryX=0;entryY=0.5;entryDx=0;entryDy=0;entryPerimeter=0;" edge="1" parent="WIyWlLk6GJQsqaUBKTNV-1" source="YhKqYagesfNfl4UuQ9qV-28" target="YhKqYagesfNfl4UuQ9qV-31">
          <mxGeometry relative="1" as="geometry" />
        </mxCell>
        <mxCell id="YhKqYagesfNfl4UuQ9qV-28" value="Create an account" style="rounded=1;whiteSpace=wrap;html=1;absoluteArcSize=1;arcSize=14;strokeWidth=2;" vertex="1" parent="WIyWlLk6GJQsqaUBKTNV-1">
          <mxGeometry x="490" y="40" width="100" height="40" as="geometry" />
        </mxCell>
        <mxCell id="YhKqYagesfNfl4UuQ9qV-36" style="edgeStyle=orthogonalEdgeStyle;rounded=0;orthogonalLoop=1;jettySize=auto;html=1;exitX=0;exitY=0.5;exitDx=0;exitDy=0;entryX=1;entryY=0.5;entryDx=0;entryDy=0;entryPerimeter=0;" edge="1" parent="WIyWlLk6GJQsqaUBKTNV-1" source="YhKqYagesfNfl4UuQ9qV-29" target="YhKqYagesfNfl4UuQ9qV-35">
          <mxGeometry relative="1" as="geometry" />
        </mxCell>
        <mxCell id="YhKqYagesfNfl4UuQ9qV-29" value="&lt;span&gt;Email verification link sent to user&#39;s email&lt;/span&gt;" style="rounded=1;whiteSpace=wrap;html=1;absoluteArcSize=1;arcSize=14;strokeWidth=2;" vertex="1" parent="WIyWlLk6GJQsqaUBKTNV-1">
          <mxGeometry x="690" y="150" width="100" height="60" as="geometry" />
        </mxCell>
        <mxCell id="YhKqYagesfNfl4UuQ9qV-30" style="edgeStyle=orthogonalEdgeStyle;rounded=0;orthogonalLoop=1;jettySize=auto;html=1;exitX=0.5;exitY=1;exitDx=0;exitDy=0;exitPerimeter=0;entryX=0.5;entryY=0;entryDx=0;entryDy=0;" edge="1" parent="WIyWlLk6GJQsqaUBKTNV-1" source="YhKqYagesfNfl4UuQ9qV-31" target="YhKqYagesfNfl4UuQ9qV-29">
          <mxGeometry relative="1" as="geometry" />
        </mxCell>
        <mxCell id="YhKqYagesfNfl4UuQ9qV-40" style="edgeStyle=orthogonalEdgeStyle;rounded=0;orthogonalLoop=1;jettySize=auto;html=1;exitX=1;exitY=0.5;exitDx=0;exitDy=0;exitPerimeter=0;" edge="1" parent="WIyWlLk6GJQsqaUBKTNV-1" source="YhKqYagesfNfl4UuQ9qV-31" target="YhKqYagesfNfl4UuQ9qV-39">
          <mxGeometry relative="1" as="geometry" />
        </mxCell>
        <mxCell id="YhKqYagesfNfl4UuQ9qV-31" value="Successfully&lt;br&gt;created ?" style="strokeWidth=2;html=1;shape=mxgraph.flowchart.decision;whiteSpace=wrap;" vertex="1" parent="WIyWlLk6GJQsqaUBKTNV-1">
          <mxGeometry x="690" y="20" width="100" height="80" as="geometry" />
        </mxCell>
        <mxCell id="YhKqYagesfNfl4UuQ9qV-32" value="Yes" style="text;html=1;align=center;verticalAlign=middle;resizable=0;points=[];autosize=1;strokeColor=none;fillColor=none;" vertex="1" parent="WIyWlLk6GJQsqaUBKTNV-1">
          <mxGeometry x="690" y="110" width="40" height="20" as="geometry" />
        </mxCell>
        <mxCell id="YhKqYagesfNfl4UuQ9qV-37" style="edgeStyle=orthogonalEdgeStyle;rounded=0;orthogonalLoop=1;jettySize=auto;html=1;exitX=0;exitY=0.5;exitDx=0;exitDy=0;exitPerimeter=0;entryX=1;entryY=0.5;entryDx=0;entryDy=0;" edge="1" parent="WIyWlLk6GJQsqaUBKTNV-1" source="YhKqYagesfNfl4UuQ9qV-35" target="YhKqYagesfNfl4UuQ9qV-10">
          <mxGeometry relative="1" as="geometry" />
        </mxCell>
        <mxCell id="YhKqYagesfNfl4UuQ9qV-35" value="Email &lt;br&gt;verified ?" style="strokeWidth=2;html=1;shape=mxgraph.flowchart.decision;whiteSpace=wrap;" vertex="1" parent="WIyWlLk6GJQsqaUBKTNV-1">
          <mxGeometry x="560" y="140" width="100" height="80" as="geometry" />
        </mxCell>
        <mxCell id="YhKqYagesfNfl4UuQ9qV-38" value="Yes" style="text;html=1;align=center;verticalAlign=middle;resizable=0;points=[];autosize=1;strokeColor=none;fillColor=none;" vertex="1" parent="WIyWlLk6GJQsqaUBKTNV-1">
          <mxGeometry x="510" y="150" width="40" height="20" as="geometry" />
        </mxCell>
        <mxCell id="YhKqYagesfNfl4UuQ9qV-39" value="&lt;span&gt;Check Email Id or password&lt;/span&gt;" style="rounded=1;whiteSpace=wrap;html=1;absoluteArcSize=1;arcSize=14;strokeWidth=2;" vertex="1" parent="WIyWlLk6GJQsqaUBKTNV-1">
          <mxGeometry x="840" y="30" width="100" height="60" as="geometry" />
        </mxCell>
        <mxCell id="YhKqYagesfNfl4UuQ9qV-41" value="No" style="text;html=1;align=center;verticalAlign=middle;resizable=0;points=[];autosize=1;strokeColor=none;fillColor=none;" vertex="1" parent="WIyWlLk6GJQsqaUBKTNV-1">
          <mxGeometry x="790" y="30" width="30" height="20" as="geometry" />
        </mxCell>
        <mxCell id="YhKqYagesfNfl4UuQ9qV-45" value="" style="edgeStyle=orthogonalEdgeStyle;rounded=0;orthogonalLoop=1;jettySize=auto;html=1;" edge="1" parent="WIyWlLk6GJQsqaUBKTNV-1" source="YhKqYagesfNfl4UuQ9qV-42" target="YhKqYagesfNfl4UuQ9qV-44">
          <mxGeometry relative="1" as="geometry" />
        </mxCell>
        <mxCell id="YhKqYagesfNfl4UuQ9qV-42" value="Forgot password&amp;nbsp;" style="rounded=1;whiteSpace=wrap;html=1;absoluteArcSize=1;arcSize=14;strokeWidth=2;" vertex="1" parent="WIyWlLk6GJQsqaUBKTNV-1">
          <mxGeometry x="290" y="40" width="100" height="40" as="geometry" />
        </mxCell>
        <mxCell id="YhKqYagesfNfl4UuQ9qV-58" style="edgeStyle=orthogonalEdgeStyle;rounded=0;orthogonalLoop=1;jettySize=auto;html=1;exitX=0.5;exitY=1;exitDx=0;exitDy=0;entryX=0.5;entryY=0;entryDx=0;entryDy=0;entryPerimeter=0;" edge="1" parent="WIyWlLk6GJQsqaUBKTNV-1" source="YhKqYagesfNfl4UuQ9qV-44" target="YhKqYagesfNfl4UuQ9qV-48">
          <mxGeometry relative="1" as="geometry" />
        </mxCell>
        <mxCell id="YhKqYagesfNfl4UuQ9qV-44" value="Reset password" style="rounded=1;whiteSpace=wrap;html=1;absoluteArcSize=1;arcSize=14;strokeWidth=2;" vertex="1" parent="WIyWlLk6GJQsqaUBKTNV-1">
          <mxGeometry x="130" y="40" width="100" height="40" as="geometry" />
        </mxCell>
        <mxCell id="YhKqYagesfNfl4UuQ9qV-57" style="edgeStyle=orthogonalEdgeStyle;rounded=0;orthogonalLoop=1;jettySize=auto;html=1;exitX=1;exitY=0.5;exitDx=0;exitDy=0;exitPerimeter=0;" edge="1" parent="WIyWlLk6GJQsqaUBKTNV-1" source="YhKqYagesfNfl4UuQ9qV-48" target="YhKqYagesfNfl4UuQ9qV-10">
          <mxGeometry relative="1" as="geometry" />
        </mxCell>
        <mxCell id="YhKqYagesfNfl4UuQ9qV-48" value="Reset &lt;br&gt;successful ?" style="strokeWidth=2;html=1;shape=mxgraph.flowchart.decision;whiteSpace=wrap;" vertex="1" parent="WIyWlLk6GJQsqaUBKTNV-1">
          <mxGeometry x="130" y="140" width="100" height="80" as="geometry" />
        </mxCell>
        <mxCell id="YhKqYagesfNfl4UuQ9qV-51" value="Yes" style="text;html=1;align=center;verticalAlign=middle;resizable=0;points=[];autosize=1;strokeColor=none;fillColor=none;" vertex="1" parent="WIyWlLk6GJQsqaUBKTNV-1">
          <mxGeometry x="290" y="150" width="40" height="20" as="geometry" />
        </mxCell>
        <mxCell id="YhKqYagesfNfl4UuQ9qV-88" style="edgeStyle=orthogonalEdgeStyle;rounded=0;orthogonalLoop=1;jettySize=auto;html=1;exitX=0.5;exitY=1;exitDx=0;exitDy=0;entryX=0;entryY=0.5;entryDx=0;entryDy=0;entryPerimeter=0;" edge="1" parent="WIyWlLk6GJQsqaUBKTNV-1" source="YhKqYagesfNfl4UuQ9qV-67" target="YhKqYagesfNfl4UuQ9qV-9">
          <mxGeometry relative="1" as="geometry" />
        </mxCell>
        <mxCell id="YhKqYagesfNfl4UuQ9qV-67" value="Microsoft/google&amp;nbsp;&lt;br&gt;Login" style="rounded=1;whiteSpace=wrap;html=1;absoluteArcSize=1;arcSize=14;strokeWidth=2;" vertex="1" parent="WIyWlLk6GJQsqaUBKTNV-1">
          <mxGeometry x="-20" y="40" width="100" height="40" as="geometry" />
        </mxCell>
        <mxCell id="YhKqYagesfNfl4UuQ9qV-78" style="edgeStyle=orthogonalEdgeStyle;rounded=0;orthogonalLoop=1;jettySize=auto;html=1;exitX=1;exitY=0;exitDx=0;exitDy=0;exitPerimeter=0;" edge="1" parent="WIyWlLk6GJQsqaUBKTNV-1" source="YhKqYagesfNfl4UuQ9qV-73" target="YhKqYagesfNfl4UuQ9qV-28">
          <mxGeometry relative="1" as="geometry" />
        </mxCell>
        <mxCell id="YhKqYagesfNfl4UuQ9qV-79" style="edgeStyle=orthogonalEdgeStyle;rounded=0;orthogonalLoop=1;jettySize=auto;html=1;exitX=1;exitY=1;exitDx=0;exitDy=0;exitPerimeter=0;entryX=0.5;entryY=0;entryDx=0;entryDy=0;" edge="1" parent="WIyWlLk6GJQsqaUBKTNV-1" source="YhKqYagesfNfl4UuQ9qV-73" target="YhKqYagesfNfl4UuQ9qV-10">
          <mxGeometry relative="1" as="geometry" />
        </mxCell>
        <mxCell id="YhKqYagesfNfl4UuQ9qV-73" value="" style="strokeWidth=1;html=1;shape=mxgraph.flowchart.annotation_2;align=left;labelPosition=right;pointerEvents=1;direction=south;" vertex="1" parent="WIyWlLk6GJQsqaUBKTNV-1">
          <mxGeometry x="440" y="-70" width="100" height="50" as="geometry" />
        </mxCell>
        <mxCell id="YhKqYagesfNfl4UuQ9qV-80" style="edgeStyle=orthogonalEdgeStyle;rounded=0;orthogonalLoop=1;jettySize=auto;html=1;exitX=1;exitY=0;exitDx=0;exitDy=0;exitPerimeter=0;" edge="1" parent="WIyWlLk6GJQsqaUBKTNV-1" source="YhKqYagesfNfl4UuQ9qV-74" target="YhKqYagesfNfl4UuQ9qV-42">
          <mxGeometry relative="1" as="geometry" />
        </mxCell>
        <mxCell id="YhKqYagesfNfl4UuQ9qV-81" style="edgeStyle=orthogonalEdgeStyle;rounded=0;orthogonalLoop=1;jettySize=auto;html=1;exitX=1;exitY=1;exitDx=0;exitDy=0;exitPerimeter=0;entryX=0.5;entryY=0;entryDx=0;entryDy=0;" edge="1" parent="WIyWlLk6GJQsqaUBKTNV-1" source="YhKqYagesfNfl4UuQ9qV-74" target="YhKqYagesfNfl4UuQ9qV-67">
          <mxGeometry relative="1" as="geometry" />
        </mxCell>
        <mxCell id="YhKqYagesfNfl4UuQ9qV-74" value="" style="strokeWidth=1;html=1;shape=mxgraph.flowchart.annotation_2;align=left;labelPosition=right;pointerEvents=1;direction=south;" vertex="1" parent="WIyWlLk6GJQsqaUBKTNV-1">
          <mxGeometry x="240" y="-70" width="100" height="50" as="geometry" />
        </mxCell>
      </root>
    </mxGraphModel>
  </diagram>
</mxfile>
